<?xml version="1.0" encoding="UTF-8"?>
<svg viewBox="0 0 1200 1200" xmlns="http://www.w3.org/2000/svg">
 <rect x="-120" y="-120" width="1440" height="1440" fill="#4a7c59"/>
 <path d="m708.95 474.05c10.707-18.578 17.004-39.988 17.004-62.977 0-69.43-56.52-125.95-125.95-125.95-69.43 0-125.95 56.52-125.95 125.95 0 22.984 6.2969 44.398 17.004 62.977h-205.93v188.93h125.95v251.91h377.86v-251.91h125.95v-188.93zm-171.93-62.977c0-34.793 28.184-62.977 62.977-62.977s62.977 28.184 62.977 62.977-28.184 62.977-62.977 62.977-62.977-28.184-62.977-62.977zm314.88 188.93h-125.95v251.91h-94.465v-94.465h-62.977v94.465h-94.465v-251.91h-125.95v-62.977h503.81v62.977z" fill="#f4f4f4"/>
</svg>
