<svg xmlns="http://www.w3.org/2000/svg" xmlns:xlink="http://www.w3.org/1999/xlink" width="500" zoomAndPan="magnify" viewBox="0 0 375 374.999991" height="500" preserveAspectRatio="xMidYMid meet" version="1.2"><defs><clipPath id="dda6342a42"><path d="M 26.179688 223.511719 L 97.878906 223.511719 L 97.878906 295.53125 L 26.179688 295.53125 Z M 26.179688 223.511719 "/></clipPath><clipPath id="3f7ee62f11"><path d="M 43.925781 151.488281 L 115.625 151.488281 L 115.625 223.511719 L 43.925781 223.511719 Z M 43.925781 151.488281 "/></clipPath><clipPath id="881e08c3f0"><path d="M 62.03125 79.46875 L 133.726562 79.46875 L 133.726562 151.488281 L 62.03125 151.488281 Z M 62.03125 79.46875 "/></clipPath><clipPath id="914ef1de9a"><path d="M 133.726562 223.511719 L 205.425781 223.511719 L 205.425781 295.53125 L 133.726562 295.53125 Z M 133.726562 223.511719 "/></clipPath><clipPath id="9539aabcc5"><path d="M 151.472656 151.488281 L 223.167969 151.488281 L 223.167969 223.511719 L 151.472656 223.511719 Z M 151.472656 151.488281 "/></clipPath><clipPath id="5181a0907a"><path d="M 169.574219 79.46875 L 241.273438 79.46875 L 241.273438 151.488281 L 169.574219 151.488281 Z M 169.574219 79.46875 "/></clipPath><clipPath id="9ed9b4eaf0"><path d="M 241.273438 223.511719 L 312.96875 223.511719 L 312.96875 295.53125 L 241.273438 295.53125 Z M 241.273438 223.511719 "/></clipPath><clipPath id="a84e227159"><path d="M 259.019531 151.488281 L 330.714844 151.488281 L 330.714844 223.511719 L 259.019531 223.511719 Z M 259.019531 151.488281 "/></clipPath><clipPath id="e6bdab1d10"><path d="M 277.121094 79.46875 L 348.820312 79.46875 L 348.820312 151.488281 L 277.121094 151.488281 Z M 277.121094 79.46875 "/></clipPath><clipPath id="7ea31ffcf6"><path d="M 62.152344 136.507812 L 114.820312 136.507812 L 114.820312 163.886719 L 62.152344 163.886719 Z M 62.152344 136.507812 "/></clipPath><clipPath id="a7c3956968"><path d="M 44.613281 207.839844 L 97.277344 207.839844 L 97.277344 235.222656 L 44.613281 235.222656 Z M 44.613281 207.839844 "/></clipPath><clipPath id="2b24aeac52"><path d="M 170.019531 136.507812 L 222.6875 136.507812 L 222.6875 163.886719 L 170.019531 163.886719 Z M 170.019531 136.507812 "/></clipPath><clipPath id="865114d198"><path d="M 151.996094 209.828125 L 204.660156 209.828125 L 204.660156 237.207031 L 151.996094 237.207031 Z M 151.996094 209.828125 "/></clipPath><clipPath id="14dbcf907b"><path d="M 277.273438 136.507812 L 329.9375 136.507812 L 329.9375 163.886719 L 277.273438 163.886719 Z M 277.273438 136.507812 "/></clipPath><clipPath id="98328161e6"><path d="M 259.273438 211.828125 L 312.691406 211.828125 L 312.691406 239.210938 L 259.273438 239.210938 Z M 259.273438 211.828125 "/></clipPath></defs><g id="d1d3d0a977"><g clip-rule="nonzero" clip-path="url(#dda6342a42)"><path style=" stroke:none;fill-rule:nonzero;fill:#4a7c59;fill-opacity:1;" d="M 26.179688 223.511719 L 97.878906 223.511719 L 97.878906 295.488281 L 26.179688 295.488281 Z M 26.179688 223.511719 "/></g><g clip-rule="nonzero" clip-path="url(#3f7ee62f11)"><path style=" stroke:none;fill-rule:nonzero;fill:#4a7c59;fill-opacity:1;" d="M 43.925781 151.488281 L 115.625 151.488281 L 115.625 223.464844 L 43.925781 223.464844 Z M 43.925781 151.488281 "/></g><g clip-rule="nonzero" clip-path="url(#881e08c3f0)"><path style=" stroke:none;fill-rule:nonzero;fill:#4a7c59;fill-opacity:1;" d="M 62.03125 79.46875 L 133.726562 79.46875 L 133.726562 151.445312 L 62.03125 151.445312 Z M 62.03125 79.46875 "/></g><g clip-rule="nonzero" clip-path="url(#914ef1de9a)"><path style=" stroke:none;fill-rule:nonzero;fill:#4a7c59;fill-opacity:1;" d="M 133.726562 223.511719 L 205.425781 223.511719 L 205.425781 295.488281 L 133.726562 295.488281 Z M 133.726562 223.511719 "/></g><g clip-rule="nonzero" clip-path="url(#9539aabcc5)"><path style=" stroke:none;fill-rule:nonzero;fill:#4a7c59;fill-opacity:1;" d="M 151.472656 151.488281 L 223.167969 151.488281 L 223.167969 223.464844 L 151.472656 223.464844 Z M 151.472656 151.488281 "/></g><g clip-rule="nonzero" clip-path="url(#5181a0907a)"><path style=" stroke:none;fill-rule:nonzero;fill:#4a7c59;fill-opacity:1;" d="M 169.574219 79.46875 L 241.273438 79.46875 L 241.273438 151.445312 L 169.574219 151.445312 Z M 169.574219 79.46875 "/></g><g clip-rule="nonzero" clip-path="url(#9ed9b4eaf0)"><path style=" stroke:none;fill-rule:nonzero;fill:#4a7c59;fill-opacity:1;" d="M 241.273438 223.511719 L 312.96875 223.511719 L 312.96875 295.488281 L 241.273438 295.488281 Z M 241.273438 223.511719 "/></g><g clip-rule="nonzero" clip-path="url(#a84e227159)"><path style=" stroke:none;fill-rule:nonzero;fill:#4a7c59;fill-opacity:1;" d="M 259.019531 151.488281 L 330.714844 151.488281 L 330.714844 223.464844 L 259.019531 223.464844 Z M 259.019531 151.488281 "/></g><g clip-rule="nonzero" clip-path="url(#e6bdab1d10)"><path style=" stroke:none;fill-rule:nonzero;fill:#4a7c59;fill-opacity:1;" d="M 277.121094 79.46875 L 348.820312 79.46875 L 348.820312 151.445312 L 277.121094 151.445312 Z M 277.121094 79.46875 "/></g><g clip-rule="nonzero" clip-path="url(#7ea31ffcf6)"><path style=" stroke:none;fill-rule:nonzero;fill:#4a7c59;fill-opacity:1;" d="M 62.152344 136.507812 L 114.777344 136.507812 L 114.777344 163.886719 L 62.152344 163.886719 Z M 62.152344 136.507812 "/></g><g clip-rule="nonzero" clip-path="url(#a7c3956968)"><path style=" stroke:none;fill-rule:nonzero;fill:#4a7c59;fill-opacity:1;" d="M 44.613281 207.839844 L 97.234375 207.839844 L 97.234375 235.222656 L 44.613281 235.222656 Z M 44.613281 207.839844 "/></g><g clip-rule="nonzero" clip-path="url(#2b24aeac52)"><path style=" stroke:none;fill-rule:nonzero;fill:#4a7c59;fill-opacity:1;" d="M 170.019531 136.507812 L 222.644531 136.507812 L 222.644531 163.886719 L 170.019531 163.886719 Z M 170.019531 136.507812 "/></g><g clip-rule="nonzero" clip-path="url(#865114d198)"><path style=" stroke:none;fill-rule:nonzero;fill:#4a7c59;fill-opacity:1;" d="M 151.996094 209.828125 L 204.617188 209.828125 L 204.617188 237.207031 L 151.996094 237.207031 Z M 151.996094 209.828125 "/></g><g clip-rule="nonzero" clip-path="url(#14dbcf907b)"><path style=" stroke:none;fill-rule:nonzero;fill:#4a7c59;fill-opacity:1;" d="M 277.273438 136.507812 L 329.894531 136.507812 L 329.894531 163.886719 L 277.273438 163.886719 Z M 277.273438 136.507812 "/></g><g clip-rule="nonzero" clip-path="url(#98328161e6)"><path style=" stroke:none;fill-rule:nonzero;fill:#4a7c59;fill-opacity:1;" d="M 259.273438 211.828125 L 312.644531 211.828125 L 312.644531 239.210938 L 259.273438 239.210938 Z M 259.273438 211.828125 "/></g></g></svg>