<?xml version="1.0" encoding="UTF-8"?>
<svg viewBox="0 0 1200 1200" xmlns="http://www.w3.org/2000/svg">
 <rect x="-120" y="-120" width="1440" height="1440" fill="#4a7c59"/>
 <path d="m914.89 923.69v-181.7l-125.96-66.449v-247.96l-188.93-151.27-188.93 151.14v247.5l-125.96 62.965v185.77l161.38-40.293h307.16l161.38 40.293zm-62.965-143.74v63.145l-62.965-15.734v-80.621zm-184.21-368.88h-135.41l67.688-54.168 67.688 54.168zm-319.61 365.9 62.965-31.5v81.859l-62.965 15.734v-66.125zm125.96-133.35v-169.42h251.89v346.36h-94.465v-31.5h-62.965v31.5h-94.465v-176.97z" fill="#f4f4f4"/>
 <path d="m694.46 505.54h-188.93v188.93h188.93zm-62.965 125.96h-62.965v-62.965h62.965z" fill="#f4f4f4"/>
</svg>
