<?xml version="1.0" encoding="UTF-8"?>
<svg viewBox="0 0 1200 1200" xmlns="http://www.w3.org/2000/svg">
 <rect x="-120" y="-120" width="1440" height="1440" fill="#4a7c59"/>
 <path d="m568.5 285.11h62.965v94.465h-62.965z" fill="#f4f4f4"/>
 <path d="m820.43 568.5h94.465v62.965h-94.465z" fill="#f4f4f4"/>
 <path d="m568.5 820.43h62.965v94.465h-62.965z" fill="#f4f4f4"/>
 <path d="m285.11 568.5h94.465v62.965h-94.465z" fill="#f4f4f4"/>
 <path d="m733.61 421.91 66.805-66.805 44.516 44.516-66.805 66.805z" fill="#f4f4f4"/>
 <path d="m733.58 778.12 44.516-44.516 66.805 66.805-44.516 44.516z" fill="#f4f4f4"/>
 <path d="m355.11 800.36 66.805-66.805 44.516 44.516-66.805 66.805z" fill="#f4f4f4"/>
 <path d="m355.14 399.62 44.516-44.516 66.805 66.805-44.516 44.516z" fill="#f4f4f4"/>
 <path d="m474.04 725.96h251.89v-251.89h-251.89zm62.965-188.93h125.96v125.96h-125.96z" fill="#f4f4f4"/>
</svg>
